<svg id="레이어_1" data-name="레이어 1" xmlns="http://www.w3.org/2000/svg" xmlns:xlink="http://www.w3.org/1999/xlink" viewBox="0 0 153 17.39"><defs><style>.cls-1{fill:none;}.cls-2{clip-path:url(#clip-path);}.cls-3{fill:#da6d75;}.cls-4{fill:#4aa389;}</style><clipPath id="clip-path" transform="translate(-211.82 -167.18)"><rect class="cls-1" width="1920" height="1080"/></clipPath></defs><title>Logo</title><g class="cls-2"><g id="웹_1920_38" data-name="웹 1920 38"><g id="구성_요소_1_4" data-name="구성 요소 1 4"><g id="그룹_43" data-name="그룹 43"><g id="그룹_42" data-name="그룹 42"><path id="패스_34" data-name="패스 34" class="cls-3" d="M230.52,181.58a1.45,1.45,0,0,1,1.06.43,1.5,1.5,0,1,1-2.56,1.06,1.49,1.49,0,0,1,1.5-1.49Z" transform="translate(-211.82 -167.18)"/><path id="패스_35" data-name="패스 35" class="cls-3" d="M234.26,168h3l7.08,10.89V168h3.15v16.54h-3l-7.07-10.85v10.85h-3.15Z" transform="translate(-211.82 -167.18)"/><path id="패스_36" data-name="패스 36" class="cls-3" d="M251.27,181.58a1.45,1.45,0,0,1,1.06.43,1.42,1.42,0,0,1,.44,1.06,1.5,1.5,0,0,1-3,0,1.49,1.49,0,0,1,1.5-1.49Z" transform="translate(-211.82 -167.18)"/><path id="패스_37" data-name="패스 37" class="cls-4" d="M275.07,170.51l-2.2,2.1a6.84,6.84,0,0,0-5.06-2.38,5.55,5.55,0,0,0-5.62,5.47v.15a5.9,5.9,0,0,0,.72,2.94,5.19,5.19,0,0,0,2,2,5.94,5.94,0,0,0,2.92.73,6,6,0,0,0,2.51-.52,9.11,9.11,0,0,0,2.5-1.86l2.13,2.23a11.67,11.67,0,0,1-3.46,2.48,9.49,9.49,0,0,1-3.72.69,8.58,8.58,0,0,1-6.32-2.44,9.21,9.21,0,0,1-1.34-10.67,8.29,8.29,0,0,1,3.2-3.1,9.07,9.07,0,0,1,4.5-1.17,9.54,9.54,0,0,1,7.21,3.33Z" transform="translate(-211.82 -167.18)"/><path id="패스_38" data-name="패스 38" class="cls-4" d="M277.35,168h3.34a11,11,0,0,1,3.9.48,4,4,0,0,1,1.87,1.63,5.07,5.07,0,0,1,.71,2.69,4.59,4.59,0,0,1-.79,2.73,4.76,4.76,0,0,1-2.35,1.66l3.92,7.35h-3.44l-3.72-7h-.29v7h-3.15Zm3.15,6.46h1a3.8,3.8,0,0,0,2.07-.4,1.47,1.47,0,0,0,.57-1.31,1.6,1.6,0,0,0-.28-.94,1.63,1.63,0,0,0-.75-.57,5.6,5.6,0,0,0-1.73-.18h-.86Z" transform="translate(-211.82 -167.18)"/><path id="패스_39" data-name="패스 39" class="cls-4" d="M289.82,168h9v3.08h-5.91v3h5.91v3h-5.91v4.35h5.91v3.09h-9Z" transform="translate(-211.82 -167.18)"/><path id="패스_40" data-name="패스 40" class="cls-4" d="M306.15,168h3.2l6.37,16.54h-3.28l-1.3-3.41h-6.75L303,184.56h-3.27Zm1.62,4.38-2.22,5.68H310Z" transform="translate(-211.82 -167.18)"/><path id="패스_41" data-name="패스 41" class="cls-4" d="M315.83,168H325v3.1h-3v13.44h-3.2V171.12h-2.93Z" transform="translate(-211.82 -167.18)"/><path id="패스_42" data-name="패스 42" class="cls-4" d="M326.91,168H330v16.54h-3.12Z" transform="translate(-211.82 -167.18)"/><path id="패스_43" data-name="패스 43" class="cls-4" d="M351.56,168h3l7.08,10.89V168h3.15v16.54h-3l-7.07-10.85v10.85h-3.15Z" transform="translate(-211.82 -167.18)"/><path id="패스_59" data-name="패스 59" class="cls-4" d="M351.56,168h3l7.09,10.89V168h3.15v16.54h-3l-7.06-10.85v10.85h-3.16Z" transform="translate(-211.82 -167.18)"/></g><path id="패스_44" data-name="패스 44" class="cls-3" d="M226,169.73a8.24,8.24,0,0,0-6-2.55l-.32,0L217,171.1a5.24,5.24,0,0,1,2.93-.84,5.18,5.18,0,0,1,3.86,1.64,5.83,5.83,0,0,1,0,8,5.15,5.15,0,0,1-3.82,1.62,5.43,5.43,0,0,1-3.51-1.25,5.28,5.28,0,0,1-2-4.34,6.8,6.8,0,0,1,.14-1.35l-2.83,4.19a8.54,8.54,0,0,0,2,3.22,8.63,8.63,0,0,0,12.23.08,8.81,8.81,0,0,0,0-12.33Z" transform="translate(-211.82 -167.18)"/></g><path id="패스_45" data-name="패스 45" class="cls-4" d="M346.74,169.73a8.24,8.24,0,0,0-6-2.55c-.19,0-.38,0-.57,0l-2.42,3.9a5.26,5.26,0,0,1,3-.85,5.17,5.17,0,0,1,3.86,1.63,5.83,5.83,0,0,1,0,8,5.12,5.12,0,0,1-3.82,1.63,5.43,5.43,0,0,1-3.51-1.25,5.31,5.31,0,0,1-2-4.35,7,7,0,0,1,.08-.92l-2.61,4.22a9,9,0,0,0,1.82,2.77,8.65,8.65,0,0,0,12.22.09l0,0a8.38,8.38,0,0,0,2.49-6.13A8.47,8.47,0,0,0,346.74,169.73Z" transform="translate(-211.82 -167.18)"/></g></g></g></svg>