<svg id="레이어_1" data-name="레이어 1" xmlns="http://www.w3.org/2000/svg" xmlns:xlink="http://www.w3.org/1999/xlink" viewBox="0 0 153.03 17.41"><defs><style>.cls-1{fill:none;}.cls-2{clip-path:url(#clip-path);}.cls-3{fill:#f9f9f9;}</style><clipPath id="clip-path" transform="translate(0.05 0.02)"><rect class="cls-1" x="-211.82" y="-167.18" width="1920" height="1080"/></clipPath></defs><title>Logo-change</title><g class="cls-2"><g id="웹_1920_38" data-name="웹 1920 38"><g id="구성_요소_1_4" data-name="구성 요소 1 4"><g id="그룹_43" data-name="그룹 43"><g id="그룹_42" data-name="그룹 42"><path id="패스_34" data-name="패스 34" class="cls-3" d="M18.7,14.4a1.45,1.45,0,0,1,1.06.43,1.51,1.51,0,1,1-1.07-.43Z" transform="translate(0.05 0.02)"/><path id="패스_35" data-name="패스 35" class="cls-3" d="M22.44.82h3l7.08,10.89V.82h3.15V17.36h-3L25.6,6.51V17.36H22.45Z" transform="translate(0.05 0.02)"/><path id="패스_36" data-name="패스 36" class="cls-3" d="M39.45,14.4a1.45,1.45,0,0,1,1.06.43A1.42,1.42,0,0,1,41,15.89a1.5,1.5,0,1,1-1.51-1.49Z" transform="translate(0.05 0.02)"/><path id="패스_37" data-name="패스 37" class="cls-3" d="M63.25,3.33l-2.2,2.1A6.84,6.84,0,0,0,56,3.05a5.55,5.55,0,0,0-5.62,5.47v.15a5.9,5.9,0,0,0,.72,2.94,5.19,5.19,0,0,0,2,2,5.94,5.94,0,0,0,2.92.73,6,6,0,0,0,2.51-.52A9.11,9.11,0,0,0,61,12l2.13,2.23a11.67,11.67,0,0,1-3.46,2.48,9.49,9.49,0,0,1-3.72.69,8.55,8.55,0,0,1-6.32-2.44A9.22,9.22,0,0,1,48.31,4.25a8.22,8.22,0,0,1,3.2-3.1A9.07,9.07,0,0,1,56,0a9.54,9.54,0,0,1,7.21,3.33Z" transform="translate(0.05 0.02)"/><path id="패스_38" data-name="패스 38" class="cls-3" d="M65.53.82h3.34a11,11,0,0,1,3.9.48,4,4,0,0,1,1.87,1.63,5.07,5.07,0,0,1,.71,2.69,4.57,4.57,0,0,1-.79,2.73A4.76,4.76,0,0,1,72.21,10l3.92,7.35H72.69l-3.72-7h-.29v7H65.53Zm3.15,6.46h1a3.81,3.81,0,0,0,2.07-.4,1.47,1.47,0,0,0,.57-1.31A1.6,1.6,0,0,0,72,4.63a1.63,1.63,0,0,0-.75-.57,5.6,5.6,0,0,0-1.73-.18H68.7Z" transform="translate(0.05 0.02)"/><path id="패스_39" data-name="패스 39" class="cls-3" d="M78,.82h9V3.9H81.09v3H87v3H81.09v4.35H87v3.09H78Z" transform="translate(0.05 0.02)"/><path id="패스_40" data-name="패스 40" class="cls-3" d="M94.33.82h3.2l6.37,16.54h-3.28L99.32,14H92.57l-1.39,3.43H87.91ZM96,5.2l-2.22,5.68h4.45Z" transform="translate(0.05 0.02)"/><path id="패스_41" data-name="패스 41" class="cls-3" d="M104,.82h9.17v3.1h-3V17.36H107V3.94h-2.93Z" transform="translate(0.05 0.02)"/><path id="패스_42" data-name="패스 42" class="cls-3" d="M115.09.82h3.09V17.36h-3.12Z" transform="translate(0.05 0.02)"/><path id="패스_43" data-name="패스 43" class="cls-3" d="M139.74.82h3l7.08,10.89V.82H153V17.36h-3L142.9,6.51V17.36h-3.15Z" transform="translate(0.05 0.02)"/><path id="패스_59" data-name="패스 59" class="cls-3" d="M139.74.82h3l7.09,10.89V.82H153V17.36h-3L142.92,6.51V17.36h-3.16Z" transform="translate(0.05 0.02)"/></g><path id="패스_44" data-name="패스 44" class="cls-3" d="M14.18,2.55A8.22,8.22,0,0,0,8.18,0H7.86L5.18,3.92a5.24,5.24,0,0,1,2.93-.84A5.18,5.18,0,0,1,12,4.72a5.83,5.83,0,0,1,0,8,5.16,5.16,0,0,1-3.82,1.62,5.43,5.43,0,0,1-3.51-1.25,5.29,5.29,0,0,1-2-4.34A6.8,6.8,0,0,1,2.78,7.4L0,11.59a8.63,8.63,0,0,0,14.2,3.33l0,0a8.8,8.8,0,0,0,0-12.33Z" transform="translate(0.05 0.02)"/></g><path id="패스_45" data-name="패스 45" class="cls-3" d="M134.92,2.55a8.22,8.22,0,0,0-6-2.55h-.57l-2.42,3.9a5.24,5.24,0,0,1,3-.85,5.17,5.17,0,0,1,3.86,1.63,5.83,5.83,0,0,1,0,8A5.12,5.12,0,0,1,129,14.31a5.43,5.43,0,0,1-3.51-1.25,5.31,5.31,0,0,1-2-4.35,7,7,0,0,1,.08-.92L120.93,12a9,9,0,0,0,1.82,2.77,8.66,8.66,0,0,0,12.22.09h0a8.35,8.35,0,0,0,2.49-6.13A8.48,8.48,0,0,0,134.92,2.55Z" transform="translate(0.05 0.02)"/></g></g></g></svg>