<svg id="레이어_1" data-name="레이어 1" xmlns="http://www.w3.org/2000/svg" xmlns:xlink="http://www.w3.org/1999/xlink" viewBox="0 0 108.42 106.26"><defs><style>.cls-1{fill:none;}.cls-2{clip-path:url(#clip-path);}.cls-3{fill:#53b19b;}</style><clipPath id="clip-path" transform="translate(-910.99 -414.74)"><rect class="cls-1" width="1920" height="1080"/></clipPath></defs><title>main-symbol-green</title><g class="cls-2"><g id="웹_1920_38" data-name="웹 1920 38"><path id="패스_27" data-name="패스 27" class="cls-3" d="M1009,435.06,995.54,447.9q-13.75-14.52-30.92-14.52a33.91,33.91,0,0,0-34.37,33.43v.92a36.34,36.34,0,0,0,4.4,18A31.56,31.56,0,0,0,947.09,498,36.08,36.08,0,0,0,965,502.49a36.76,36.76,0,0,0,15.33-3.13q6.94-3.14,15.26-11.39l13.05,13.62q-11.21,10.95-21.18,15.18A58.19,58.19,0,0,1,964.65,521q-23.6,0-38.62-15T911,467.7a52.55,52.55,0,0,1,6.84-26.89,51,51,0,0,1,19.6-18.92,55.32,55.32,0,0,1,27.48-7.15A58.31,58.31,0,0,1,1009,435.06Z" transform="translate(-910.99 -414.74)"/><g id="그룹_41" data-name="그룹 41"><path id="패스_30" data-name="패스 30" class="cls-1" d="M1008.78,454l-13.25,13.16" transform="translate(-910.99 -414.74)"/><path id="패스_31" data-name="패스 31" class="cls-1" d="M1008.25,520.67s25.13-34.67,0-66.17" transform="translate(-910.99 -414.74)"/></g></g></g></svg>